<?xml version="1.0" encoding="utf-8"?>
<!-- Generator: Adobe Illustrator 19.2.1, SVG Export Plug-In . SVG Version: 6.00 Build 0)  -->
<svg version="1.1" xmlns="http://www.w3.org/2000/svg" xmlns:xlink="http://www.w3.org/1999/xlink" x="0px" y="0px"
	 viewBox="0 0 17.3 26.6" style="enable-background:new 0 0 17.3 26.6;" xml:space="preserve">
<style type="text/css">
	.st0{fill:#2475C6;}
	.st1{fill:#333333;}
	.st2{fill:#C97D23;}
	.st3{fill:#397F2D;}
	.st4{enable-background:new    ;}
</style>
<g id="Layer_1">
	<g id="XMLID_1_">
		<g>
			<path class="st0" d="M12.4,20.8c-0.1,0.5-0.3,0.9-0.3,1.1c-0.5,0.4-1.2,0.6-2.1,0.7v-1.3C10.9,21.2,11.7,21,12.4,20.8z"/>
			<path class="st0" d="M7.3,21.2l0,1.3c-0.8-0.1-1.5-0.4-2-0.8c-0.1-0.2-0.2-0.6-0.3-1.1C5.6,20.9,6.4,21.1,7.3,21.2z"/>
			<path class="st1" d="M17.3,24.6c0,0.2-0.1,0.5-0.2,0.6c-0.1,0.1-0.2,0.1-0.3,0.2c-0.3,0.1-0.7,0.1-1-0.2
				c-0.9-0.9-2.3-2.1-3.2-2.5c-0.7,0.4-1.5,0.7-2.5,0.9l0,1.8c0,0.3-0.1,0.6-0.4,0.9c-0.2,0.2-0.6,0.4-0.9,0.4H8.5
				c-0.3,0-0.7-0.1-0.9-0.4c-0.2-0.2-0.4-0.6-0.4-0.9v-1.8c-1-0.1-1.9-0.5-2.5-0.9c-0.9,0.4-2.3,1.6-3.3,2.5c-0.3,0.2-0.6,0.3-1,0.2
				C0.2,25.2,0,24.9,0,24.5c0.3-4.5,2.3-7,3-7.7c-0.2-1-0.3-2.2-0.3-3.3C2.4,7.2,4.4,2.6,8.5,0.1L8.7,0L9,0.2c4,2.4,6,7.1,5.7,13.4
				c-0.1,1.2-0.2,2.3-0.4,3.3C15,17.6,17,20.1,17.3,24.6z M16.3,24.3c-0.2-3.1-1.4-5.1-2.2-6.1c-0.3,1.7-0.7,3.1-1,3.7
				C14.2,22.4,15.4,23.5,16.3,24.3z M12.7,19.7c0.9-3.5,2-10.3-0.8-15.2C10.9,4.8,9.8,5,8.7,5C7.6,5,6.5,4.8,5.5,4.5
				C2.7,9.3,3.7,16,4.6,19.5c0.7,0.3,1.7,0.6,2.7,0.7l0-2.5c0-0.7,0.6-1.2,1.3-1.2h0.3c0.3,0,0.7,0.1,0.9,0.4
				c0.2,0.2,0.4,0.5,0.4,0.9l0,2.5C11,20.2,11.8,19.9,12.7,19.7L12.7,19.7z M12.1,21.8c0.1-0.2,0.2-0.6,0.3-1.1
				c-0.8,0.2-1.6,0.4-2.4,0.5v1.3C10.9,22.4,11.6,22.2,12.1,21.8z M8.7,4c0.9,0,1.8-0.1,2.6-0.3c-0.7-1-1.6-1.8-2.6-2.5
				C7.6,1.9,6.8,2.7,6.1,3.6C6.9,3.9,7.8,4,8.7,4z M9,25.3l0-7.6c0-0.1-0.1-0.2-0.2-0.2H8.5c-0.1,0-0.1,0-0.2,0.1
				c-0.1,0.1-0.1,0.1-0.1,0.2l0,7.6c0,0.1,0.1,0.2,0.2,0.2h0.3C8.9,25.6,9,25.5,9,25.3z M7.3,22.6l0-1.3c-0.8-0.1-1.7-0.3-2.4-0.5
				c0.1,0.5,0.3,0.9,0.3,1.1C5.7,22.2,6.4,22.4,7.3,22.6z M4.2,21.9c-0.2-0.7-0.6-2-0.9-3.7c-0.8,1-1.9,3-2.2,6.1
				C1.9,23.4,3.1,22.4,4.2,21.9z"/>
			<path class="st2" d="M14.1,18.2c0.8,1,1.9,3,2.2,6.1c-0.8-0.8-2.1-1.8-3.1-2.4C13.4,21.2,13.8,19.9,14.1,18.2z"/>
			<path class="st0" d="M11.9,4.5c2.8,4.8,1.7,11.7,0.8,15.2l0-0.1c-0.8,0.3-1.7,0.5-2.6,0.6l0-2.5c0-0.3-0.1-0.6-0.4-0.9
				c-0.2-0.2-0.5-0.4-0.9-0.4H8.5c-0.7,0-1.2,0.6-1.3,1.2l0,2.5c-1-0.1-2-0.4-2.7-0.7C3.7,16,2.7,9.3,5.5,4.5C6.5,4.8,7.6,5,8.7,5
				C9.8,5,10.9,4.8,11.9,4.5z M12.3,9.8c0-0.9-0.4-1.9-1-2.5S9.7,6.2,8.7,6.2c-1.9,0-3.6,1.7-3.6,3.6c0,1,0.4,1.9,1,2.5
				s1.6,1.1,2.5,1.1c1,0,1.9-0.4,2.5-1C11.9,11.7,12.3,10.8,12.3,9.8z"/>
			<path class="st1" d="M11.3,7.3c0.7,0.7,1.1,1.6,1,2.5c0,1-0.4,1.9-1.1,2.5c-0.7,0.7-1.6,1.1-2.5,1c-1,0-1.9-0.4-2.5-1.1
				s-1.1-1.6-1-2.5c0-1.9,1.7-3.6,3.6-3.6C9.7,6.2,10.6,6.6,11.3,7.3z M11.3,9.8c0-0.7-0.3-1.3-0.8-1.8c-0.5-0.5-1.1-0.8-1.8-0.8
				C8,7.2,7.4,7.5,6.9,8S6.1,9.1,6.1,9.8c0,0.7,0.3,1.4,0.8,1.8s1.1,0.8,1.8,0.8C10.1,12.4,11.3,11.2,11.3,9.8z"/>
			<path class="st3" d="M10.5,8c0.5,0.5,0.8,1.1,0.8,1.8c0,1.4-1.2,2.6-2.6,2.6c-0.7,0-1.3-0.3-1.8-0.8s-0.8-1.1-0.8-1.8
				c0-0.7,0.3-1.3,0.8-1.8S8,7.2,8.7,7.2C9.4,7.2,10.1,7.5,10.5,8z"/>
			<path class="st0" d="M11.4,3.7C10.5,3.9,9.6,4,8.7,4C7.8,4,6.9,3.9,6.1,3.6c0.7-0.9,1.6-1.8,2.6-2.5C9.8,1.9,10.7,2.7,11.4,3.7z"
				/>
			<path class="st2" d="M9.1,17.7l0,7.6c0,0.1-0.1,0.2-0.2,0.2H8.5c-0.1,0-0.2-0.1-0.2-0.2l0-7.6c0-0.1,0-0.1,0.1-0.2
				c0,0,0.1-0.1,0.2-0.1h0.3C9,17.5,9.1,17.6,9.1,17.7z"/>
			<path class="st2" d="M3.2,18.1c0.3,1.7,0.7,3.1,0.9,3.7c-1,0.5-2.3,1.6-3.2,2.4C1.3,21.1,2.5,19.1,3.2,18.1z"/>
		</g>
		<g>
		</g>
	</g>
	<text transform="matrix(1 0 0 1 -7.4535 42.6785)" style="font-family:'HelveticaNeue-Bold'; font-size:5px;">Created by Guilherme Simoes</text>
	<text transform="matrix(1 0 0 1 -7.4535 47.6785)" style="font-family:'HelveticaNeue-Bold'; font-size:5px;">from the Noun Project</text>
</g>
<g id="Layer_2">
</g>
</svg>
